<?xml version="1.0" standalone="no"?><!DOCTYPE svg PUBLIC "-//W3C//DTD SVG 1.1//EN" "http://www.w3.org/Graphics/SVG/1.1/DTD/svg11.dtd"><svg t="1592981727714" class="icon" viewBox="0 0 1024 1024" version="1.1" xmlns="http://www.w3.org/2000/svg" p-id="1123" xmlns:xlink="http://www.w3.org/1999/xlink" width="200" height="200"><defs><style type="text/css"></style></defs><path d="M826.515 665.154l-184.178 172.76 46.976 47.079A125.766 125.766 0 0 0 778.417 922a125.784 125.784 0 0 0 89.107-37.007c49.22-49.415 49.22-129.327 0-178.742l-41.01-41.097z m-57.923-58.048L379.187 216.863 200.975 395.6l384.734 385.565 182.883-174.059zM120.775 171.664l35.68 179.353 178.277-178.808-178.637-35.813c-16.245-3.257-32.055 7.272-35.312 23.517a30 30 0 0 0-0.008 11.75z" fill="#1AA5FF" p-id="1124"></path></svg>